<svg width="212" height="220" viewBox="0 0 212 220" fill="none" xmlns="http://www.w3.org/2000/svg">
<g clip-path="url(#clip0_317_80)">
<path fill-rule="evenodd" clip-rule="evenodd" d="M139.74 88.1799C137.24 85.9999 137.07 57.2699 137.11 53.9799C137.16 48.7599 142.71 49.4399 148.11 42.6099C158.79 29.1999 138.74 -22.6801 121.8 11.3999C105.55 46.7899 130.59 45.5599 130.47 53.8999C130.36 62.0699 131.86 73.1899 124.09 73.1899C85.3602 73.1899 80.7202 75.0499 80.0902 67.7299C77.7902 40.5899 85.6502 50.0999 87.7502 40.4699C89.2302 33.4699 86.6102 1.15993 84.5202 1.18993C84.2202 1.18993 83.8402 41.0399 81.5802 29.0699C79.8802 20.0699 78.3102 -21.5501 77.8602 17.5699C77.6602 34.5699 75.0302 34.7499 74.4402 17.5699C73.0802 -21.4301 72.4402 20.1299 70.9702 29.1499C67.9702 47.0199 68.3402 -35.8501 64.6302 22.3799C61.6302 62.5999 78.0402 24.7399 71.9402 87.1899C46.7002 110.6 49.1102 152.06 91.8702 167.6C80.8702 143.53 112.3 122.14 91.3702 93.7499C89.2202 90.8499 82.3702 85.6399 82.3702 86.0199C82.2715 85.1948 82.3484 84.3581 82.596 83.5648C82.8437 82.7715 83.2564 82.0396 83.807 81.4172C84.3577 80.7948 85.0338 80.2959 85.7909 79.9534C86.5481 79.6109 87.3692 79.4325 88.2002 79.4299C119.7 79.4299 129.2 77.1799 128.2 86.0899C119.26 90.8999 113.92 100.16 112.27 110.7C109.15 130.7 127.57 148.29 118.73 167.6C162 151.94 162.77 112.51 139.74 88.1799ZM82.9402 90.0099C96.4702 112.59 79.8002 134.73 82.6502 152.95C82.0202 153.05 82.3902 153.74 80.8602 148.07C79.2502 141.93 81.0502 130.61 81.9702 124.18C83.7102 111.49 79.7402 106.1 75.5402 88.1799C72.6102 75.6999 76.6502 56.2299 74.7302 50.8699C72.1602 43.8099 66.4302 46.9299 66.2402 33.7699C66.0302 5.43993 66.7102 28.1599 68.0202 30.4399C66.9102 47.4399 77.0202 39.1199 76.8102 60.0499C76.6502 72.5299 74.4102 75.7499 82.9402 90.0099V90.0099ZM135.17 88.1499C130.97 106.15 127 111.49 128.73 124.15C129.65 130.58 131.45 141.9 129.85 148.04C128.31 153.75 128.69 153.04 128.07 152.92C130.82 135.33 114.43 112.24 127.78 89.9799C136.16 75.9799 133.92 74.9199 133.92 49.1399C158.19 40.3499 143.37 6.84993 134.47 1.67993C145.36 1.32993 153.55 33.2199 146.9 41.5799C144.18 44.9999 138.9 48.0799 137.44 49.2499C132.27 53.7699 138.8 72.7299 135.17 88.1499V88.1499Z" fill="#5F9A2D"/>
<path d="M11.7701 201.52C11.7701 192.13 13.7701 194.07 4.23014 194.07C4.23014 203.39 5.49013 201.52 0.150134 201.52C0.150134 179.27 -1.20986 182.95 4.23014 182.95C4.23014 192.21 2.28014 190.3 11.7701 190.3C11.7701 181.08 10.5201 182.95 15.8501 182.95C15.8501 205.2 17.2101 201.52 11.7701 201.52Z" fill="#5F9A2D"/>
<path d="M20.3098 201.52C20.3098 178.21 16.5998 182.95 34.3098 182.95C34.3098 187.8 36.3098 186.59 24.3698 186.59C24.3698 191.59 22.6198 190.35 33.1198 190.35C33.1198 195.18 35.1198 193.99 24.3698 193.99C24.3698 199.14 22.3698 197.89 34.4498 197.89C34.4098 202.73 37.2398 201.52 20.3098 201.52Z" fill="#5F9A2D"/>
<path d="M51.8902 201.52C49.7602 196.28 51.7702 197.36 42.3502 197.36C40.2102 202.6 41.7302 201.52 36.4902 201.52C45.7302 179.79 43.1902 182.82 48.2102 182.82C57.7502 205.24 57.6402 201.52 51.8902 201.52ZM46.2702 187.73C43.1702 195.31 42.2702 193.73 48.7402 193.73L46.2702 187.73Z" fill="#5F9A2D"/>
<path d="M59.03 201.52C59.03 179.27 57.67 182.95 63.11 182.95C63.11 201.69 60.32 197.83 72.37 197.83C72.41 202.75 75.04 201.52 59.03 201.52Z" fill="#5F9A2D"/>
<path d="M83.86 186.72C83.86 204.48 85.22 201.52 79.77 201.52C79.77 183.76 81.65 186.72 74.12 186.72C74.12 181.72 71.05 182.95 89.51 182.95C89.51 187.85 90.97 186.72 83.86 186.72Z" fill="#5F9A2D"/>
<path d="M104.25 201.52C104.25 192.13 106.25 194.07 96.7197 194.07C96.7197 203.41 97.9697 201.52 92.6397 201.52C92.6397 179.27 91.2697 182.95 96.7197 182.95C96.7197 192.21 94.7697 190.3 104.25 190.3C104.25 181.08 103.01 182.95 108.34 182.95C108.34 205.2 109.7 201.52 104.25 201.52Z" fill="#5F9A2D"/>
<path d="M122.1 194.12C122.1 203.32 123.38 201.52 118.02 201.52C118.02 192.3 119.45 196.45 110.88 182.95C116.88 182.95 114.76 181.45 120.09 190.41C125.5 181.41 123.4 182.95 129.24 182.95L122.1 194.12Z" fill="#5F9A2D"/>
<path d="M135.87 186.64C135.87 191.94 133.87 190.64 144.73 190.64C144.73 195.53 146.73 194.32 135.87 194.32C135.87 203.32 137.12 201.51 131.78 201.51C131.78 178.14 128.11 182.94 145.92 182.94C145.92 187.87 147.93 186.64 135.87 186.64Z" fill="#5F9A2D"/>
<path d="M167.35 195.96C163.27 205.52 148.35 202.89 148.35 192.24C148.41 177.04 173.58 181.36 167.35 195.96ZM163.82 192.24C163.82 184.56 152.63 184.41 152.63 192.18C152.63 199.95 163.82 200.17 163.82 192.24V192.24Z" fill="#5F9A2D"/>
<path d="M189.9 195.96C185.81 205.52 170.9 202.89 170.9 192.24C170.9 177.07 196.14 181.33 189.9 195.96ZM186.41 192.24C186.41 184.57 175.22 184.4 175.22 192.18C175.22 199.96 186.41 200.16 186.41 192.24Z" fill="#5F9A2D"/>
<path d="M210.66 195.9C207.85 202.57 200.84 201.52 194.27 201.52C194.27 179.24 191.86 182.95 201.51 182.95C209.13 182.95 213.24 189.79 210.66 195.9ZM201.51 186.64C197.31 186.64 198.36 184.4 198.36 197.83C211.63 197.83 207.82 186.64 201.51 186.64Z" fill="#5F9A2D"/>
<path d="M42.1402 214.45C42.1402 217.53 40.2702 219.16 37.9902 219.16C35.7102 219.16 33.9902 217.33 33.9902 214.62C33.9902 211.91 35.7602 209.93 38.1402 209.93C40.5202 209.93 42.1402 211.8 42.1402 214.45ZM35.2102 214.6C35.2102 216.5 36.2102 218.22 38.0602 218.22C39.9102 218.22 40.9202 216.53 40.9202 214.5C40.9202 212.73 39.9902 210.87 38.0702 210.87C36.1502 210.87 35.2102 212.63 35.2102 214.6V214.6Z" fill="#5F9A2D"/>
<path d="M46.29 219.01V210.07H47.55L50.42 214.6C51.0195 215.529 51.5541 216.498 52.02 217.5V217.5C51.91 216.3 51.88 215.21 51.88 213.82V210.08H52.97V219.02H51.8L49 214.45C48.3813 213.486 47.8235 212.484 47.33 211.45V211.45C47.39 212.57 47.42 213.65 47.42 215.13V218.95L46.29 219.01Z" fill="#5F9A2D"/>
<path d="M57.6696 210.07H58.8197V218.07H62.6396V219.07H57.6396L57.6696 210.07Z" fill="#5F9A2D"/>
<path d="M67.4099 219.01V215.22L64.5898 210.07H65.8999L67.1599 212.54C67.5099 213.22 67.7699 213.76 68.0499 214.38C68.2999 213.8 68.5998 213.22 68.9498 212.54L70.2399 210.07H71.5499L68.5499 215.2V219.01H67.4099Z" fill="#5F9A2D"/>
<path d="M80.75 210.07H85.57V211.07H81.91V214.07H85.29V215.07H81.91V219.07H80.75V210.07Z" fill="#5F9A2D"/>
<path d="M89.8604 210.19C90.5932 210.062 91.3364 210.002 92.0804 210.01C93.0023 209.912 93.9264 210.174 94.6604 210.74C94.9026 210.953 95.0953 211.217 95.2248 211.512C95.3544 211.808 95.4177 212.128 95.4104 212.45C95.4157 212.963 95.2535 213.463 94.9484 213.874C94.6433 214.286 94.2121 214.587 93.7204 214.73V214.73C94.0786 214.89 94.3884 215.142 94.6184 215.459C94.8484 215.777 94.9905 216.15 95.0303 216.54C95.1935 217.374 95.4243 218.194 95.7204 218.99H94.5303C94.2689 218.299 94.0681 217.586 93.9304 216.86C93.6704 215.62 93.1904 215.16 92.1404 215.12H91.0603V218.99H89.9004L89.8604 210.19ZM91.0204 214.26H92.2003C93.4303 214.26 94.2003 213.59 94.2003 212.57C94.2003 211.55 93.3704 210.91 92.1504 210.9C91.7678 210.89 91.3853 210.924 91.0104 211L91.0204 214.26Z" fill="#5F9A2D"/>
<path d="M104.28 214.82H100.8V218.04H104.67V219.04H99.6699V210.1H104.5V211.1H100.82V213.93H104.3L104.28 214.82Z" fill="#5F9A2D"/>
<path d="M108.67 217.6C109.29 217.981 110.002 218.185 110.73 218.19C111.91 218.19 112.6 217.57 112.6 216.66C112.6 215.75 112.13 215.35 110.92 214.89C109.46 214.37 108.56 213.61 108.56 212.35C108.56 211.09 109.71 209.93 111.45 209.93C112.143 209.901 112.832 210.053 113.45 210.37L113.13 211.31C112.608 211.027 112.023 210.879 111.43 210.88C110.21 210.88 109.75 211.61 109.75 212.22C109.75 213.06 110.29 213.47 111.52 213.95C113.03 214.53 113.8 215.26 113.8 216.57C113.8 217.88 112.8 219.14 110.67 219.14C109.873 219.15 109.088 218.954 108.39 218.57L108.67 217.6Z" fill="#5F9A2D"/>
<path d="M119.17 210.07V213.81H123.49V210.07H124.66V219.01H123.49V214.82H119.17V219.01H118.01V210.07H119.17Z" fill="#5F9A2D"/>
<path d="M134.77 210.07H139.59V211.07H135.93V214.07H139.31V215.07H135.93V219.07H134.77V210.07Z" fill="#5F9A2D"/>
<path d="M151.52 214.45C151.52 217.53 149.65 219.16 147.37 219.16C145.09 219.16 143.37 217.33 143.37 214.62C143.37 211.91 145.14 209.93 147.52 209.93C149.9 209.93 151.52 211.8 151.52 214.45ZM144.59 214.6C144.59 216.5 145.59 218.22 147.44 218.22C149.29 218.22 150.3 216.53 150.3 214.5C150.3 212.73 149.37 210.87 147.45 210.87C145.53 210.87 144.59 212.63 144.59 214.6Z" fill="#5F9A2D"/>
<path d="M163.31 214.45C163.31 217.53 161.44 219.16 159.16 219.16C156.88 219.16 155.16 217.33 155.16 214.62C155.16 211.91 156.92 209.93 159.31 209.93C161.7 209.93 163.31 211.8 163.31 214.45ZM156.37 214.6C156.37 216.5 157.37 218.22 159.23 218.22C161.09 218.22 162.09 216.53 162.09 214.5C162.09 212.73 161.16 210.87 159.24 210.87C157.32 210.87 156.41 212.63 156.41 214.6H156.37Z" fill="#5F9A2D"/>
<path d="M167.46 210.19C168.272 210.073 169.09 210.013 169.91 210.01C171.214 209.903 172.51 210.3 173.53 211.12C173.961 211.532 174.296 212.032 174.514 212.586C174.732 213.141 174.826 213.736 174.79 214.33C174.821 214.965 174.723 215.599 174.503 216.196C174.283 216.792 173.946 217.338 173.51 217.8C172.4 218.743 170.962 219.207 169.51 219.09C168.809 219.095 168.107 219.059 167.41 218.98L167.46 210.19ZM168.61 218.1C168.998 218.149 169.389 218.169 169.78 218.16C170.293 218.219 170.812 218.161 171.3 217.992C171.787 217.822 172.23 217.545 172.596 217.181C172.962 216.817 173.242 216.376 173.414 215.889C173.586 215.403 173.646 214.883 173.59 214.37C173.59 212.26 172.41 210.92 169.97 210.92C169.514 210.912 169.058 210.952 168.61 211.04V218.1Z" fill="#5F9A2D"/>
</g>
<defs>
<clipPath id="clip0_317_80">
<rect width="211.44" height="219.16" fill="white"/>
</clipPath>
</defs>
</svg>
